<svg width="14" height="10" viewBox="0 0 14 10" fill="none" xmlns="http://www.w3.org/2000/svg">
<path d="M13.29 4.90002C13.28 5.07002 13.26 5.24002 13.24 5.41002C13.22 5.59002 13.19 5.75002 13.16 5.91002C13.12 6.13002 13.09 6.25002 13.04 6.41002C12.95 6.68002 12.85 6.88002 12.76 7.03002C12.68 7.18002 12.56 7.36002 12.41 7.56002C12.41 7.56002 12.12 7.90002 11.84 8.13002C9.62997 10.02 6.45997 9.30002 5.85997 9.15002C4.92997 8.92002 2.37997 8.27002 1.21997 5.77002C0.669965 4.59002 0.639965 3.41002 0.789965 2.46002L1.48997 1.52002C0.899965 3.52002 1.51997 5.18002 1.51997 5.18002C2.51997 7.85002 5.58997 8.53002 6.31997 8.69002C8.98997 9.28002 11.16 8.18002 11.71 7.70002C11.82 7.60002 12.16 7.27002 12.43 6.82002C12.43 6.82002 12.72 6.36002 12.76 6.00002C12.76 5.99002 12.78 5.85002 12.78 5.84002C12.78 5.82002 12.78 5.79002 12.79 5.75002C12.8 5.55002 12.8 5.34002 12.81 5.14002L13.29 4.90002Z" fill="#F59F00"/>
<path d="M9.92575 6.00964L11.6082 5.31567L11.3679 4.7333L9.68553 5.42727L9.92575 6.00964Z" fill="#FCFDFE"/>
<path d="M6.00886 5.70034L7.82886 5.70117L7.82915 5.07117L6.00915 5.07034L6.00886 5.70034Z" fill="#FCFDFE"/>
<path d="M6.01032 4.99453L7.83032 4.99536L7.83061 4.36536L6.01061 4.36453L6.01032 4.99453Z" fill="#FCFDFE"/>
<path d="M3.98713 5.7001L5.80713 5.70093L5.80742 5.07093L3.98742 5.0701L3.98713 5.7001Z" fill="#FCFDFE"/>
<path d="M10.19 6.37999L8.54004 1.11999C8.58004 1.05999 8.78004 0.759988 9.19004 0.639988C9.21004 0.629988 9.23004 0.629987 9.25004 0.619987C9.62004 0.519987 9.92004 0.629988 10 0.659988L11.65 5.91999C11.47 5.91999 11.21 5.93999 10.89 6.03999C10.57 6.13999 10.33 6.27999 10.19 6.37999Z" fill="#F59F00"/>
<path d="M9.87317 5.38765L11.3333 4.93018L11.2436 4.64389L9.78347 5.10136L9.87317 5.38765Z" fill="#FCFDFE"/>
<path d="M9.21993 4.83009L3.70993 4.94009C3.66993 4.89009 3.43993 4.62009 3.42993 4.20009C3.42993 4.18009 3.42993 4.16009 3.42993 4.14009C3.43993 3.77009 3.62993 3.52009 3.67993 3.45009L9.18993 3.34009C9.13993 3.50009 9.08993 3.76009 9.08993 4.07009C9.09993 4.40009 9.16993 4.66009 9.21993 4.83009Z" fill="#F59F00"/>
<path d="M6.44992 4.88015L6.41992 3.40015H6.71992L6.74992 4.88015H6.44992Z" fill="#FCFDFE"/>
<path d="M6.03001 4.89016L6.01001 3.41016H6.31001L6.33001 4.89016H6.03001Z" fill="#FCFDFE"/>
<path d="M9.21993 6.3799L3.70993 6.4899C3.66993 6.4399 3.43993 6.1699 3.42993 5.7599C3.42993 5.7399 3.42993 5.7199 3.42993 5.6999C3.43993 5.3299 3.62993 5.0799 3.67993 5.0099L9.19993 4.8999C9.14993 5.0599 9.09993 5.3199 9.09993 5.6299C9.09993 5.9599 9.16993 6.2099 9.21993 6.3799Z" fill="#F59F00"/>
<path d="M4.37986 6.47999L4.35986 4.99999L4.65986 4.98999L4.68986 6.46999L4.37986 6.47999Z" fill="#FCFDFE"/>
<path d="M8.00999 6.39992L7.98999 4.91992H8.28999L8.30999 6.39992H8.00999Z" fill="#FCFDFE"/>
</svg>
