<svg width="226" height="78" viewBox="0 0 226 78" fill="none" xmlns="http://www.w3.org/2000/svg">
<path d="M125.27 54.98H93.67C89.4 54.98 85.08 54.9 80.71 54.73C76.34 54.57 72.07 54.22 67.91 53.69C63.75 53.16 59.86 52.41 56.24 51.43C52.62 50.46 49.43 49.19 46.64 47.62C46.17 50.78 45.34 53.55 44.14 55.93C42.94 58.32 41.5 60.34 39.8 62C38.11 63.66 36.22 64.98 34.16 65.96C32.09 66.94 29.95 67.6 27.74 67.95C26.45 68.16 25.14 68.27 23.83 68.27C22.89 68.27 21.61 68.18 19.99 68C18.37 67.82 16.51 67.34 14.4 66.57C12.29 65.79 10.33 64.76 8.52 63.47C6.71 62.18 5.14 60.67 3.83 58.93C2.52 57.2 1.52 55.26 0.83 53.12C0.28 51.36 0 49.49 0 47.5C0 47.06 0.00999973 46.61 0.0299997 46.15C0.0899997 46.07 0.2 45.88 0.35 45.59C0.51 45.29 0.68 44.95 0.88 44.56C1.08 44.17 1.29 43.76 1.51 43.33C1.73 42.9 1.95 42.52 2.14 42.17C2.34 41.82 2.5 41.52 2.62 41.29C2.75 41.05 2.83 40.93 2.87 40.93C2.83 41.45 2.81 41.97 2.81 42.48C2.81 44.3 3.09 46.09 3.65 47.85C4.21 49.62 5.1 51.28 6.34 52.83C7.57 54.38 9.04 55.72 10.73 56.83C12.42 57.94 14.25 58.82 16.2 59.47C18.15 60.12 20.16 60.52 22.24 60.68C22.98 60.75 23.72 60.78 24.44 60.78C25.75 60.78 27.22 60.65 28.83 60.39C30.45 60.13 32.13 59.58 33.89 58.75C35.64 57.92 37.18 56.82 38.49 55.45C39.8 54.09 40.83 52.45 41.58 50.56C42.27 48.8 42.61 46.79 42.61 44.55V44.01C42.18 42.69 41.76 41.37 41.35 40.07C40.94 38.77 40.52 37.47 40.09 36.18C40.78 35.23 41.45 34.27 42.1 33.31C42.76 32.35 43.4 31.39 44.03 30.44C44.7 32.4 45.71 34.15 47.07 35.69C48.43 37.23 50.07 38.59 51.98 39.77C53.89 40.96 56.04 41.98 58.43 42.84C60.82 43.7 63.37 44.43 66.09 45.02C68.8 45.62 71.65 46.1 74.63 46.45C77.61 46.81 80.64 47.09 83.73 47.3C86.82 47.5 89.92 47.64 93.03 47.7C95.52 47.75 97.98 47.77 100.41 47.77H102.23L125.27 47.7V54.98Z" fill="#F59F00"/>
<path d="M151.46 35.09C153.03 35.94 154.38 36.79 155.52 37.65C156.66 38.51 157.63 39.35 158.43 40.19C158.98 40.76 159.4 41.24 159.68 41.61C159.96 41.99 160.2 42.35 160.39 42.69C160.58 43.03 160.74 43.4 160.89 43.79C161.04 44.18 161.25 44.66 161.52 45.24C162.36 46.88 163.26 47.69 164.22 47.69V54.88C164.22 54.93 164.16 54.95 164.04 54.95C163.65 54.95 163.22 54.91 162.76 54.83C162.3 54.75 161.84 54.59 161.39 54.36C160.94 54.13 160.51 53.82 160.1 53.42C159.69 53.02 159.33 52.51 159.01 51.89C158.11 52.69 157.05 53.28 155.84 53.66C155.02 53.92 154.2 54.05 153.4 54.05C153.01 54.05 152.41 53.99 151.61 53.88C150.81 53.77 149.88 53.31 148.82 52.52C147.76 51.73 146.94 50.56 146.35 49.03C145.98 49.32 145.45 49.68 144.76 50.1C144.07 50.52 143.24 50.95 142.26 51.41C141.28 51.87 140.16 52.32 138.89 52.77C137.63 53.22 136.23 53.61 134.72 53.95C133.2 54.29 131.57 54.54 129.83 54.72C128.56 54.85 127.22 54.92 125.83 54.92C125.32 54.92 124.8 54.91 124.27 54.89C124.27 54.78 124.27 54.52 124.27 54.12C124.27 53.72 124.26 53.25 124.25 52.72C124.24 52.19 124.24 51.63 124.24 51.04C124.24 50.45 124.24 49.91 124.25 49.42C124.26 48.93 124.27 48.52 124.28 48.19C124.29 47.86 124.31 47.7 124.35 47.7H124.85C127.51 47.7 129.88 47.58 131.95 47.33C134.02 47.09 135.82 46.74 137.36 46.3C138.9 45.86 140.17 45.35 141.18 44.78C142.19 44.21 143.01 43.62 143.63 43C144.26 42.39 144.73 41.78 145.04 41.17C145.35 40.57 145.59 40.01 145.75 39.5L151.46 35.09Z" fill="#F59F00"/>
<path d="M226 44.58C225.37 45.81 224.76 47.02 224.15 48.21C223.54 49.4 222.93 50.6 222.3 51.79C220.18 51.86 217.89 51.95 215.41 52.08C212.93 52.21 210.34 52.36 207.65 52.52C204.96 52.68 202.2 52.85 199.39 53.03C196.58 53.21 193.79 53.39 191.01 53.58C188.24 53.77 185.52 53.94 182.85 54.11C180.19 54.27 177.66 54.42 175.28 54.56C172.9 54.7 170.69 54.81 168.67 54.9C166.64 54.99 164.87 55.04 163.36 55.06V47.78H163.45C164.33 47.8 165.25 47.81 166.21 47.81C167.5 47.81 169.14 47.79 171.13 47.75C173.12 47.71 175.52 47.62 178.35 47.49C181.17 47.36 184.09 47.2 187.11 47.01C190.13 46.82 193.14 46.63 196.13 46.42C199.13 46.22 202.08 46.01 204.98 45.79C207.88 45.58 210.62 45.39 213.21 45.21C215.8 45.04 218.18 44.9 220.37 44.78C222.56 44.68 224.43 44.61 226 44.58Z" fill="#F59F00"/>
<path d="M55.57 72.36C54.61 72.36 53.61 72.27 52.55 72.09C51.49 71.91 50.42 71.67 49.33 71.35L49.83 68.66C50.51 68.99 51.13 69.25 51.7 69.45C52.27 69.65 52.81 69.79 53.33 69.88C53.84 69.97 54.34 70.02 54.84 70.02C55.32 70.02 55.76 69.92 56.17 69.71C56.58 69.51 56.9 69.23 57.16 68.87C57.41 68.51 57.54 68.11 57.54 67.65C57.54 67.22 57.41 66.84 57.14 66.52C56.87 66.2 56.52 65.92 56.08 65.67C55.64 65.42 55.16 65.18 54.63 64.95C54.11 64.72 53.58 64.48 53.05 64.24C52.52 64 52.04 63.72 51.6 63.41C51.16 63.1 50.8 62.74 50.53 62.33C50.26 61.92 50.12 61.43 50.12 60.87C50.12 60.19 50.28 59.6 50.6 59.1C50.92 58.61 51.35 58.2 51.9 57.89C52.45 57.58 53.05 57.34 53.73 57.19C54.4 57.04 55.1 56.96 55.81 56.96C56.7 56.96 57.57 57.08 58.41 57.31C59.25 57.54 59.95 57.87 60.5 58.29L59.92 60.17C59.32 59.76 58.71 59.45 58.09 59.23C57.47 59.01 56.88 58.9 56.33 58.9C55.59 58.9 54.99 59.06 54.53 59.37C54.08 59.68 53.85 60.12 53.83 60.7C53.82 61.28 53.95 61.76 54.22 62.13C54.49 62.51 54.86 62.82 55.32 63.08C55.78 63.34 56.28 63.57 56.83 63.77C57.37 63.97 57.92 64.18 58.46 64.4C59.01 64.62 59.51 64.87 59.98 65.17C60.45 65.47 60.82 65.84 61.1 66.29C61.38 66.74 61.52 67.29 61.52 67.95C61.52 68.93 61.27 69.74 60.77 70.39C60.27 71.04 59.58 71.53 58.68 71.86C57.79 72.19 56.76 72.36 55.57 72.36Z" fill="#F59F00"/>
<path d="M66.22 72.06L63.61 72.3C63.68 71.07 63.72 69.8 63.74 68.47C63.76 67.14 63.76 65.8 63.74 64.45C63.72 63.1 63.68 61.77 63.62 60.47C63.56 59.17 63.48 57.92 63.37 56.74L67 56.18C67.05 58.66 67.02 61.24 66.91 63.92C66.8 66.61 66.57 69.32 66.22 72.06ZM73.72 72.44L70.19 72.22C70.36 71.6 70.5 70.95 70.62 70.27C70.73 69.59 70.81 68.93 70.84 68.28C70.87 67.64 70.86 67.04 70.79 66.51C70.72 65.98 70.58 65.55 70.37 65.24C70.16 64.92 69.87 64.77 69.49 64.77C69.13 64.77 68.78 64.95 68.43 65.29C68.08 65.64 67.77 66.14 67.47 66.78C67.18 67.43 66.92 68.19 66.7 69.08C66.48 69.97 66.32 70.96 66.21 72.05L64.65 69.5C64.73 68.95 64.88 68.37 65.1 67.76C65.32 67.15 65.6 66.56 65.94 65.99C66.28 65.42 66.67 64.9 67.11 64.44C67.55 63.98 68.03 63.61 68.55 63.34C69.07 63.07 69.62 62.93 70.21 62.93C70.97 62.93 71.59 63.14 72.07 63.55C72.56 63.96 72.94 64.51 73.22 65.2C73.5 65.88 73.69 66.64 73.79 67.47C73.89 68.3 73.93 69.15 73.9 70.01C73.88 70.9 73.82 71.7 73.72 72.44Z" fill="#F59F00"/>
<path d="M78.77 72.42C78.21 72.42 77.69 72.31 77.21 72.08C76.73 71.86 76.34 71.52 76.05 71.06C75.76 70.61 75.61 70.04 75.61 69.37C75.61 68.62 75.82 67.88 76.25 67.16C76.68 66.44 77.38 65.75 78.37 65.12C79.36 64.48 80.69 63.92 82.35 63.43L83.21 64.93C82.28 65.13 81.51 65.37 80.91 65.66C80.3 65.95 79.84 66.25 79.5 66.57C79.17 66.89 78.94 67.2 78.81 67.5C78.68 67.8 78.62 68.07 78.62 68.31C78.62 68.77 78.75 69.17 79 69.5C79.25 69.83 79.59 69.99 80.02 69.99C80.42 69.99 80.81 69.87 81.19 69.63C81.57 69.39 81.88 69.04 82.14 68.56C82.39 68.09 82.52 67.49 82.52 66.78L83.68 66.03C83.61 67.2 83.42 68.19 83.1 69C82.78 69.81 82.38 70.47 81.91 70.97C81.44 71.47 80.93 71.84 80.38 72.07C79.84 72.3 79.3 72.42 78.77 72.42ZM83.06 72.46C82.95 71.92 82.86 71.28 82.77 70.53C82.68 69.79 82.61 69.02 82.56 68.24C82.51 67.46 82.46 66.72 82.43 66.03C82.4 65.34 82.37 64.76 82.36 64.28C82.35 63.81 82.35 63.52 82.36 63.43L85.73 63.09C85.54 64.87 85.43 66.47 85.39 67.88C85.35 69.3 85.37 70.63 85.45 71.88L83.06 72.46Z" fill="#F59F00"/>
<path d="M91.4699 72.14L88.0199 72.34C88.2299 70.85 88.3699 69.37 88.4299 67.9C88.4899 66.42 88.4499 64.96 88.2999 63.49L91.0299 62.94C91.1999 64.1 91.3299 65.18 91.4199 66.18C91.5099 67.18 91.5499 68.16 91.5599 69.11C91.5699 70.06 91.5399 71.07 91.4699 72.14ZM97.9999 72.28L94.5899 72.08C94.7599 71.4 94.8899 70.7 94.9699 70C95.0499 69.3 95.0899 68.62 95.0799 67.99C95.0699 67.35 95.0199 66.79 94.9299 66.3C94.8399 65.81 94.6899 65.42 94.4899 65.13C94.2899 64.84 94.0399 64.7 93.7499 64.7C93.3899 64.7 93.0899 64.89 92.8299 65.26C92.5799 65.64 92.3599 66.16 92.1799 66.82C91.9999 67.49 91.8599 68.27 91.7499 69.18C91.6399 70.09 91.5499 71.08 91.4699 72.14L89.9699 68.86C90.0099 68.37 90.1099 67.86 90.2599 67.31C90.4099 66.76 90.6199 66.23 90.8699 65.71C91.1199 65.19 91.4299 64.72 91.7899 64.31C92.1499 63.9 92.5499 63.56 92.9999 63.31C93.4499 63.06 93.9399 62.93 94.4899 62.93C95.2499 62.93 95.8799 63.13 96.3799 63.51C96.8799 63.89 97.2699 64.41 97.5599 65.06C97.8499 65.71 98.0399 66.43 98.1499 67.24C98.2599 68.05 98.2899 68.89 98.2599 69.76C98.2099 70.64 98.1299 71.48 97.9999 72.28ZM104.56 72.3L100.89 72.06C101.12 71.2 101.28 70.35 101.4 69.49C101.51 68.63 101.55 67.85 101.52 67.14C101.49 66.43 101.36 65.86 101.15 65.43C100.94 65 100.62 64.79 100.21 64.79C99.8999 64.79 99.6299 64.92 99.3899 65.18C99.1499 65.44 98.9399 65.82 98.7699 66.3C98.5999 66.78 98.4599 67.35 98.3599 68.01C98.2599 68.67 98.1999 69.4 98.1899 70.2L97.0499 66.8C97.1799 66.09 97.4399 65.44 97.8399 64.86C98.2299 64.28 98.7199 63.82 99.2899 63.47C99.8599 63.12 100.49 62.95 101.17 62.95C101.89 62.95 102.48 63.14 102.96 63.51C103.43 63.89 103.8 64.39 104.08 65.03C104.35 65.67 104.54 66.39 104.64 67.19C104.74 67.99 104.78 68.84 104.76 69.72C104.73 70.61 104.67 71.47 104.56 72.3Z" fill="#F59F00"/>
<path d="M110.38 72.56C109.71 72.56 109.03 72.51 108.34 72.4C107.64 72.29 107.01 72.16 106.45 72.01L106.65 69.86C106.94 69.99 107.26 70.12 107.61 70.24C107.95 70.36 108.31 70.46 108.69 70.54C109.06 70.62 109.42 70.66 109.77 70.66C110.09 70.66 110.35 70.61 110.55 70.51C110.75 70.41 110.9 70.28 111 70.12C111.1 69.96 111.15 69.79 111.15 69.62C111.15 69.34 111.05 69.11 110.85 68.93C110.65 68.75 110.39 68.58 110.08 68.43C109.77 68.28 109.44 68.12 109.08 67.95C108.73 67.78 108.4 67.58 108.08 67.36C107.77 67.14 107.51 66.86 107.31 66.52C107.11 66.18 107.01 65.76 107.01 65.25C107.01 64.7 107.15 64.24 107.44 63.89C107.73 63.53 108.11 63.27 108.59 63.09C109.07 62.91 109.59 62.82 110.15 62.82C110.83 62.82 111.53 62.95 112.25 63.21C112.98 63.47 113.6 63.83 114.14 64.29L113.2 65.97C112.81 65.58 112.42 65.3 112.02 65.14C111.62 64.98 111.26 64.9 110.94 64.9C110.65 64.9 110.4 64.99 110.19 65.16C109.98 65.33 109.88 65.55 109.88 65.81C109.88 66.14 109.99 66.41 110.21 66.63C110.43 66.85 110.71 67.03 111.06 67.17C111.41 67.32 111.77 67.46 112.16 67.62C112.55 67.77 112.91 67.95 113.26 68.14C113.61 68.33 113.89 68.59 114.11 68.89C114.33 69.19 114.44 69.58 114.44 70.06C114.44 70.7 114.25 71.21 113.88 71.58C113.51 71.95 113.01 72.21 112.39 72.37C111.77 72.48 111.1 72.56 110.38 72.56Z" fill="#F59F00"/>
<path d="M121.33 71.75C121.42 70.7 121.5 69.7 121.55 68.76C121.6 67.82 121.64 66.91 121.65 66.02C121.66 65.14 121.65 64.25 121.6 63.34C121.55 62.44 121.48 61.5 121.37 60.53C121.26 59.56 121.12 58.52 120.95 57.42L124.82 57.18C124.87 58.58 124.89 59.88 124.86 61.09C124.83 62.3 124.77 63.46 124.68 64.58C124.59 65.69 124.47 66.8 124.33 67.9C124.19 69 124.03 70.14 123.84 71.33L121.33 71.75ZM130.43 71.85C129.96 71.9 129.44 71.95 128.86 72C128.28 72.05 127.67 72.08 127.02 72.11C126.38 72.14 125.72 72.14 125.07 72.13C124.41 72.12 123.76 72.08 123.13 72.02C122.49 71.96 121.89 71.87 121.34 71.75L122.3 70.05C123.42 70.25 124.62 70.28 125.9 70.14C127.18 70 128.6 69.74 130.14 69.34L130.43 71.85Z" fill="#F59F00"/>
<path d="M132.38 61.85C132.37 61.28 132.32 60.75 132.24 60.26C132.16 59.77 132.08 59.26 132 58.75L135.15 58.26C135.28 58.76 135.39 59.32 135.46 59.93C135.53 60.54 135.56 61.1 135.55 61.62L132.38 61.85ZM135.21 72L132.7 72.26C132.77 70.79 132.78 69.29 132.73 67.79C132.68 66.28 132.56 64.77 132.36 63.26L135.79 62.86C135.82 63.93 135.82 64.94 135.8 65.9C135.78 66.86 135.72 67.83 135.63 68.8C135.54 69.78 135.4 70.85 135.21 72Z" fill="#F59F00"/>
<path d="M141.04 71.96L138.43 71.43C138.56 68.97 138.61 66.5 138.57 64.02C138.53 61.54 138.4 59.12 138.19 56.75L141.82 56.18C141.87 58.66 141.84 61.22 141.73 63.87C141.61 66.53 141.38 69.23 141.04 71.96ZM144.13 72.36C143.84 72.36 143.5 72.34 143.12 72.3C142.74 72.26 142.37 72.21 141.99 72.15C141.62 72.09 141.3 72.03 141.03 71.96L139.95 69.85C140.26 69.97 140.6 70.08 141 70.2C141.39 70.31 141.78 70.4 142.17 70.48C142.56 70.55 142.88 70.59 143.15 70.59C143.89 70.59 144.5 70.46 144.98 70.2C145.45 69.94 145.8 69.59 146.03 69.14C146.26 68.69 146.37 68.19 146.37 67.64C146.37 67.39 146.34 67.13 146.27 66.87C146.2 66.61 146.09 66.36 145.94 66.13C145.79 65.9 145.6 65.71 145.39 65.57C145.18 65.43 144.91 65.35 144.59 65.35C144.28 65.35 143.94 65.45 143.54 65.66C143.15 65.86 142.76 66.19 142.38 66.65C142 67.1 141.68 67.7 141.41 68.43C141.14 69.16 140.98 70.05 140.93 71.11L140.17 70.36C140.17 69.25 140.3 68.3 140.55 67.49C140.8 66.68 141.14 65.99 141.57 65.43C141.99 64.86 142.46 64.41 142.96 64.08C143.46 63.74 143.96 63.5 144.48 63.34C144.99 63.18 145.45 63.1 145.87 63.1C146.52 63.1 147.14 63.23 147.72 63.5C148.31 63.76 148.78 64.19 149.15 64.77C149.52 65.36 149.7 66.13 149.7 67.09C149.7 67.95 149.55 68.71 149.25 69.37C148.95 70.03 148.54 70.59 148.02 71.04C147.5 71.49 146.91 71.82 146.24 72.05C145.56 72.25 144.86 72.36 144.13 72.36Z" fill="#F59F00"/>
<path d="M154.8 72.32L151.55 72.12C151.71 71.07 151.83 70.07 151.9 69.13C151.97 68.19 152.01 67.26 152 66.34C151.99 65.43 151.94 64.48 151.83 63.51L154.42 62.98C154.57 63.86 154.68 64.69 154.75 65.46C154.82 66.23 154.87 66.98 154.9 67.7C154.93 68.42 154.93 69.17 154.91 69.92C154.89 70.68 154.85 71.48 154.8 72.32ZM154.8 72.32L154.22 69.36C154.26 68.23 154.45 67.21 154.78 66.31C155.11 65.41 155.55 64.67 156.1 64.09C156.65 63.51 157.26 63.14 157.94 62.97C158.63 62.81 159.35 62.91 160.12 63.28L159.62 66.56C158.74 66.14 158.01 65.95 157.44 66C156.86 66.05 156.4 66.32 156.05 66.83C155.7 67.34 155.43 68.05 155.24 68.97C155.06 69.88 154.91 71 154.8 72.32Z" fill="#F59F00"/>
<path d="M164.04 72.42C163.48 72.42 162.96 72.31 162.48 72.08C162 71.86 161.62 71.52 161.32 71.06C161.03 70.61 160.88 70.04 160.88 69.37C160.88 68.62 161.09 67.88 161.52 67.16C161.95 66.44 162.65 65.75 163.64 65.12C164.63 64.48 165.96 63.92 167.62 63.43L168.48 64.93C167.55 65.13 166.78 65.37 166.18 65.66C165.58 65.95 165.11 66.25 164.77 66.57C164.44 66.89 164.21 67.2 164.08 67.5C163.95 67.8 163.89 68.07 163.89 68.31C163.89 68.77 164.02 69.17 164.27 69.5C164.52 69.83 164.86 69.99 165.29 69.99C165.69 69.99 166.08 69.87 166.46 69.63C166.84 69.39 167.15 69.04 167.41 68.56C167.66 68.09 167.79 67.49 167.79 66.78L168.95 66.03C168.88 67.2 168.69 68.19 168.37 69C168.05 69.81 167.66 70.47 167.18 70.97C166.71 71.47 166.2 71.84 165.65 72.07C165.11 72.3 164.57 72.42 164.04 72.42ZM168.32 72.46C168.21 71.92 168.12 71.28 168.03 70.53C167.94 69.79 167.87 69.02 167.82 68.24C167.77 67.46 167.72 66.72 167.69 66.03C167.66 65.34 167.63 64.76 167.62 64.28C167.61 63.81 167.61 63.52 167.62 63.43L170.99 63.09C170.8 64.87 170.69 66.47 170.65 67.88C170.61 69.3 170.63 70.63 170.71 71.88L168.32 72.46Z" fill="#F59F00"/>
<path d="M176.54 72.32L173.29 72.12C173.45 71.07 173.57 70.07 173.64 69.13C173.71 68.19 173.75 67.26 173.74 66.34C173.73 65.43 173.68 64.48 173.57 63.51L176.16 62.98C176.31 63.86 176.42 64.69 176.49 65.46C176.56 66.23 176.61 66.98 176.64 67.7C176.67 68.42 176.67 69.17 176.65 69.92C176.63 70.68 176.59 71.48 176.54 72.32ZM176.54 72.32L175.96 69.36C176 68.23 176.19 67.21 176.52 66.31C176.85 65.41 177.29 64.67 177.84 64.09C178.39 63.51 179 63.14 179.68 62.97C180.37 62.81 181.09 62.91 181.86 63.28L181.36 66.56C180.48 66.14 179.75 65.95 179.18 66C178.6 66.05 178.14 66.32 177.79 66.83C177.44 67.34 177.17 68.05 176.98 68.97C176.8 69.88 176.65 71 176.54 72.32Z" fill="#F59F00"/>
<path d="M183.62 76.88L184.96 74.04C185.8 74.65 186.58 75.1 187.29 75.4C188.01 75.7 188.64 75.81 189.2 75.74C189.75 75.66 190.21 75.37 190.57 74.88C190.93 74.39 191.17 73.65 191.29 72.68C191.37 72.14 191.42 71.62 191.45 71.11C191.48 70.6 191.48 70.09 191.47 69.56C191.46 69.03 191.43 68.46 191.38 67.84C191.33 67.22 191.28 66.54 191.21 65.8C191.14 65.06 191.08 64.21 191.01 63.26L194.32 62.63C194.36 63.83 194.37 65.04 194.35 66.26C194.33 67.48 194.27 68.64 194.18 69.76C194.09 70.87 193.95 71.87 193.78 72.75C193.53 74.09 193.1 75.15 192.49 75.93C191.88 76.71 191.14 77.24 190.25 77.54C189.36 77.84 188.35 77.92 187.23 77.8C186.1 77.66 184.9 77.36 183.62 76.88ZM187.31 72.4C186.57 72.4 185.95 72.2 185.47 71.8C184.99 71.4 184.61 70.86 184.33 70.2C184.05 69.54 183.86 68.79 183.75 67.98C183.64 67.16 183.6 66.33 183.62 65.49C183.64 64.65 183.7 63.85 183.79 63.1L187.32 63.14C187.15 63.75 187 64.39 186.89 65.07C186.78 65.75 186.7 66.41 186.67 67.07C186.64 67.72 186.66 68.31 186.73 68.84C186.8 69.37 186.94 69.79 187.15 70.1C187.36 70.42 187.65 70.57 188.04 70.57C188.39 70.57 188.71 70.4 189.03 70.05C189.34 69.7 189.63 69.2 189.89 68.55C190.15 67.9 190.37 67.13 190.56 66.24C190.75 65.35 190.89 64.36 191 63.27L192.14 66.04C192.11 66.62 192.02 67.21 191.85 67.82C191.68 68.43 191.46 69 191.17 69.56C190.88 70.11 190.55 70.6 190.16 71.03C189.77 71.46 189.34 71.8 188.85 72.05C188.37 72.27 187.86 72.4 187.31 72.4Z" fill="#F59F00"/>
<path d="M210.93 36.22L200.9 4.21C201.13 3.86 202.38 2.05 204.87 1.27C204.98 1.23 205.1 1.19999 205.22 1.16999C207.49 0.569994 209.29 1.21999 209.8 1.41999L219.83 33.43C218.76 33.44 217.13 33.57 215.23 34.15C213.27 34.76 211.82 35.61 210.93 36.22Z" fill="#F59F00"/>
<path d="M209.031 30.2086L217.934 27.4189L217.384 25.663L208.481 28.4527L209.031 30.2086Z" fill="#FCFDFE"/>
<path d="M205.06 26.77L171.52 27.47C171.25 27.16 169.87 25.51 169.83 22.99C169.83 22.87 169.83 22.76 169.83 22.64C169.91 20.37 171.04 18.88 171.37 18.46L204.91 17.76C204.62 18.75 204.27 20.3 204.3 22.23C204.33 24.2 204.73 25.77 205.06 26.77Z" fill="#F59F00"/>
<path d="M188.18 27.12L188.03 18.11L189.87 18.07L190.01 27.08L188.18 27.12Z" fill="#FCFDFE"/>
<path d="M185.65 27.17L185.5 18.16L187.34 18.12L187.48 27.13L185.65 27.17Z" fill="#FCFDFE"/>
<path d="M205.06 36.21L171.52 36.91C171.25 36.6 169.87 34.95 169.83 32.43C169.83 32.31 169.83 32.2 169.83 32.08C169.91 29.81 171.04 28.32 171.37 27.9L204.91 27.2C204.62 28.19 204.27 29.74 204.3 31.67C204.33 33.64 204.73 35.21 205.06 36.21Z" fill="#F59F00"/>
<path d="M175.62 36.82L175.48 27.81L177.31 27.77L177.46 36.78L175.62 36.82Z" fill="#FCFDFE"/>
<path d="M197.68 36.36L197.54 27.35L199.38 27.31L199.52 36.32L197.68 36.36Z" fill="#FCFDFE"/>
</svg>
