<svg width="146" height="128" viewBox="0 0 146 128" fill="none" xmlns="http://www.w3.org/2000/svg">
<path d="M133.03 22.84L126.76 2.82C126.91 2.6 127.69 1.47 129.25 0.979999C129.32 0.959999 129.39 0.939999 129.47 0.919999C130.89 0.549999 132.02 0.949999 132.33 1.08L138.6 21.1C137.93 21.11 136.91 21.18 135.72 21.55C134.5 21.93 133.59 22.46 133.03 22.84Z" fill="#F59F00"/>
<path d="M131.84 19.0839L137.413 17.3377L137.069 16.2403L131.496 17.9864L131.84 19.0839Z" fill="#FCFDFE"/>
<path d="M129.36 16.93L108.38 17.37C108.21 17.18 107.35 16.15 107.32 14.57C107.32 14.5 107.32 14.42 107.32 14.35C107.37 12.93 108.08 12 108.29 11.74L129.27 11.3C129.09 11.92 128.87 12.89 128.89 14.09C128.9 15.32 129.16 16.31 129.36 16.93Z" fill="#F59F00"/>
<path d="M118.8 17.15L118.71 11.51L119.86 11.49L119.95 17.12L118.8 17.15Z" fill="#FCFDFE"/>
<path d="M117.22 17.18L117.13 11.55L118.28 11.52L118.37 17.16L117.22 17.18Z" fill="#FCFDFE"/>
<path d="M129.36 22.83L108.38 23.27C108.21 23.08 107.35 22.05 107.32 20.47C107.32 20.4 107.32 20.32 107.32 20.25C107.37 18.83 108.08 17.9 108.29 17.64L129.27 17.2C129.09 17.82 128.87 18.79 128.89 19.99C128.9 21.23 129.16 22.21 129.36 22.83Z" fill="#F59F00"/>
<path d="M110.95 23.22L110.85 17.58L112 17.56L112.09 23.19L110.95 23.22Z" fill="#FCFDFE"/>
<path d="M124.75 22.93L124.66 17.29L125.8 17.27L125.9 22.9L124.75 22.93Z" fill="#FCFDFE"/>
<path d="M53.57 62.31C52.12 62.31 50.57 62.17 48.94 61.88C47.31 61.59 45.64 61.19 43.96 60.68L44.73 57.32C45.93 57.9 46.98 58.34 47.9 58.65C48.82 58.96 49.67 59.17 50.46 59.29C51.25 59.41 52.03 59.47 52.8 59.47C53.61 59.47 54.4 59.29 55.17 58.93C55.94 58.57 56.57 58.05 57.06 57.38C57.55 56.71 57.8 55.92 57.8 55.02C57.8 54.27 57.57 53.63 57.11 53.08C56.65 52.54 56.05 52.04 55.3 51.61C54.55 51.17 53.73 50.76 52.83 50.38C51.93 50 51.04 49.6 50.15 49.19C49.26 48.78 48.45 48.33 47.7 47.83C46.95 47.33 46.35 46.75 45.89 46.08C45.43 45.42 45.2 44.63 45.2 43.71C45.2 42.6 45.45 41.64 45.94 40.84C46.43 40.04 47.1 39.38 47.94 38.87C48.78 38.36 49.72 37.98 50.76 37.73C51.8 37.48 52.86 37.36 53.95 37.36C55.34 37.36 56.68 37.55 57.99 37.92C59.29 38.29 60.35 38.82 61.16 39.51L60.42 42.14C59.4 41.39 58.34 40.83 57.26 40.46C56.18 40.09 55.19 39.9 54.3 39.9C53.02 39.9 51.96 40.16 51.11 40.67C50.27 41.18 49.83 41.97 49.81 43.04C49.81 44.04 50.04 44.87 50.51 45.52C50.98 46.17 51.59 46.72 52.35 47.17C53.11 47.62 53.95 48.01 54.88 48.36C55.81 48.7 56.73 49.05 57.64 49.4C58.55 49.75 59.39 50.17 60.16 50.65C60.93 51.13 61.55 51.73 62.02 52.46C62.49 53.19 62.73 54.09 62.73 55.18C62.73 56.76 62.35 58.08 61.58 59.14C60.81 60.2 59.74 60.99 58.38 61.53C57.02 62.07 55.41 62.31 53.57 62.31Z" fill="#F59F00"/>
<path d="M68.33 60.4L65.3 60.69C65.4 58.86 65.46 56.98 65.5 55.04C65.54 53.1 65.54 51.15 65.51 49.2C65.48 47.25 65.43 45.33 65.37 43.43C65.3 41.54 65.19 39.72 65.04 37.99L69.16 37.36C69.28 40.98 69.28 44.72 69.17 48.6C69.08 52.46 68.79 56.4 68.33 60.4ZM79.03 60.89L74.96 60.54C75.23 59.44 75.43 58.36 75.57 57.28C75.7 56.2 75.76 55.18 75.73 54.21C75.7 53.24 75.6 52.38 75.41 51.64C75.23 50.9 74.96 50.31 74.6 49.88C74.24 49.45 73.78 49.23 73.2 49.23C72.62 49.23 72.07 49.51 71.53 50.08C70.99 50.65 70.51 51.44 70.07 52.45C69.64 53.46 69.27 54.64 68.97 56C68.67 57.36 68.45 58.82 68.32 60.4L66.33 56.82C66.41 56.05 66.58 55.23 66.86 54.35C67.14 53.48 67.5 52.61 67.94 51.75C68.38 50.89 68.91 50.12 69.51 49.41C70.12 48.71 70.8 48.15 71.56 47.72C72.32 47.3 73.15 47.09 74.06 47.09C75.14 47.09 76.03 47.38 76.73 47.97C77.43 48.56 77.97 49.34 78.36 50.32C78.74 51.3 79.01 52.39 79.15 53.59C79.29 54.79 79.35 56.02 79.31 57.28C79.28 58.56 79.19 59.75 79.03 60.89Z" fill="#F59F00"/>
<path d="M86.79 60.94C85.98 60.94 85.22 60.76 84.51 60.41C83.8 60.06 83.23 59.54 82.79 58.85C82.36 58.17 82.14 57.34 82.14 56.35C82.14 55.25 82.46 54.19 83.09 53.16C83.72 52.13 84.77 51.16 86.22 50.25C87.67 49.34 89.62 48.52 92.06 47.81L93.01 49.74C91.53 50.07 90.32 50.47 89.38 50.94C88.44 51.41 87.72 51.9 87.22 52.41C86.72 52.92 86.38 53.42 86.2 53.92C86.02 54.42 85.93 54.86 85.93 55.25C85.93 56 86.12 56.65 86.51 57.2C86.89 57.75 87.45 58.02 88.18 58.02C88.83 58.02 89.47 57.81 90.08 57.4C90.7 56.99 91.21 56.39 91.62 55.6C92.03 54.81 92.23 53.85 92.21 52.72L93.91 51.48C93.79 53.19 93.51 54.65 93.06 55.85C92.61 57.05 92.04 58.03 91.34 58.78C90.65 59.53 89.91 60.08 89.13 60.42C88.36 60.77 87.58 60.94 86.79 60.94ZM92.91 60.92C92.76 60.13 92.63 59.19 92.52 58.11C92.41 57.02 92.33 55.92 92.26 54.79C92.19 53.67 92.14 52.6 92.12 51.59C92.09 50.58 92.07 49.73 92.06 49.05C92.05 48.37 92.05 47.96 92.07 47.82L96.14 47.39C95.85 49.85 95.69 52.11 95.66 54.17C95.63 56.23 95.67 58.26 95.79 60.26L92.91 60.92Z" fill="#F59F00"/>
<path d="M103.96 60.54L99.95 60.83C100.24 58.66 100.41 56.47 100.47 54.28C100.53 52.09 100.46 49.92 100.27 47.79L103.44 47.16C103.69 48.85 103.87 50.42 103.97 51.88C104.08 53.33 104.12 54.75 104.11 56.13C104.1 57.51 104.05 58.98 103.96 60.54ZM113.45 60.68L109.44 60.51C109.69 59.34 109.86 58.2 109.96 57.09C110.06 55.98 110.08 54.96 110.02 54C109.96 53.05 109.84 52.21 109.64 51.49C109.45 50.77 109.19 50.2 108.88 49.79C108.56 49.38 108.19 49.17 107.77 49.17C107.14 49.17 106.61 49.47 106.18 50.06C105.76 50.66 105.4 51.47 105.1 52.51C104.8 53.55 104.57 54.76 104.39 56.13C104.22 57.51 104.07 58.97 103.96 60.53L101.97 56.17C102.03 55.46 102.16 54.69 102.37 53.88C102.58 53.07 102.87 52.25 103.22 51.44C103.58 50.63 104.01 49.9 104.53 49.25C105.05 48.6 105.64 48.07 106.3 47.68C106.96 47.29 107.72 47.09 108.56 47.09C109.56 47.09 110.41 47.37 111.1 47.93C111.79 48.49 112.33 49.24 112.71 50.19C113.09 51.14 113.37 52.2 113.53 53.38C113.69 54.55 113.76 55.77 113.73 57.03C113.72 58.3 113.62 59.51 113.45 60.68ZM122.59 60.74L118.41 60.48C118.72 59.1 118.94 57.74 119.07 56.41C119.2 55.08 119.22 53.88 119.13 52.8C119.03 51.72 118.81 50.86 118.45 50.22C118.09 49.58 117.58 49.25 116.91 49.25C116.41 49.25 115.97 49.48 115.58 49.94C115.2 50.4 114.87 51.04 114.6 51.84C114.33 52.65 114.12 53.57 113.97 54.61C113.82 55.65 113.72 56.75 113.68 57.93L112.09 52.97C112.28 51.93 112.65 50.97 113.2 50.09C113.75 49.21 114.44 48.49 115.28 47.94C116.12 47.39 117.06 47.12 118.12 47.12C119.1 47.12 119.91 47.38 120.54 47.91C121.17 48.44 121.67 49.16 122.04 50.06C122.4 50.96 122.66 51.99 122.79 53.15C122.92 54.3 122.97 55.53 122.92 56.84C122.87 58.16 122.76 59.45 122.59 60.74Z" fill="#F59F00"/>
<path d="M131.19 61.15C130.27 61.15 129.32 61.07 128.36 60.92C127.4 60.77 126.52 60.57 125.74 60.34L126 57.86C126.44 58.03 126.91 58.2 127.4 58.35C127.89 58.5 128.41 58.63 128.96 58.74C129.51 58.85 130.06 58.9 130.62 58.9C131.18 58.9 131.63 58.81 131.96 58.63C132.3 58.45 132.54 58.22 132.7 57.94C132.85 57.66 132.93 57.4 132.93 57.15C132.93 56.73 132.78 56.37 132.47 56.07C132.16 55.77 131.76 55.5 131.27 55.25C130.78 55 130.26 54.74 129.73 54.46C129.19 54.18 128.68 53.86 128.19 53.51C127.7 53.15 127.3 52.72 126.99 52.21C126.68 51.7 126.53 51.07 126.53 50.32C126.53 49.55 126.73 48.92 127.14 48.42C127.54 47.92 128.07 47.54 128.73 47.28C129.38 47.02 130.1 46.89 130.89 46.89C131.83 46.89 132.81 47.08 133.82 47.45C134.83 47.82 135.7 48.35 136.43 49.02L135.28 51.01C134.74 50.43 134.15 50.02 133.51 49.78C132.87 49.54 132.28 49.42 131.77 49.42C131.27 49.42 130.87 49.56 130.57 49.85C130.27 50.14 130.12 50.49 130.12 50.92C130.12 51.44 130.28 51.87 130.61 52.2C130.94 52.54 131.35 52.82 131.86 53.05C132.37 53.28 132.91 53.52 133.49 53.76C134.07 54 134.61 54.27 135.12 54.57C135.63 54.87 136.05 55.24 136.37 55.7C136.7 56.15 136.86 56.73 136.86 57.45C136.86 58.39 136.6 59.13 136.07 59.67C135.54 60.21 134.85 60.59 134.01 60.82C133.14 61.03 132.21 61.15 131.19 61.15Z" fill="#F59F00"/>
<path d="M56.96 70.29C56.94 69.51 56.88 68.79 56.76 68.11C56.65 67.43 56.54 66.74 56.42 66.04L60.85 65.36C61.04 66.05 61.18 66.81 61.28 67.65C61.38 68.49 61.42 69.26 61.41 69.97L56.96 70.29ZM60.94 84.22L57.41 84.57C57.5 82.55 57.52 80.5 57.45 78.43C57.38 76.36 57.21 74.29 56.93 72.21L61.75 71.67C61.79 73.13 61.79 74.53 61.76 75.84C61.73 77.16 61.65 78.49 61.52 79.82C61.4 81.17 61.21 82.63 60.94 84.22Z" fill="#F59F00"/>
<path d="M69.13 84.16L65.46 83.43C65.65 80.05 65.71 76.66 65.66 73.27C65.6 69.87 65.43 66.55 65.13 63.3L70.23 62.51C70.3 65.91 70.26 69.43 70.1 73.07C69.94 76.71 69.61 80.41 69.13 84.16ZM73.47 84.71C73.06 84.71 72.59 84.68 72.06 84.63C71.53 84.58 71 84.51 70.48 84.43C69.96 84.35 69.51 84.26 69.13 84.17L67.62 81.27C68.05 81.43 68.54 81.59 69.09 81.74C69.64 81.89 70.19 82.02 70.73 82.12C71.27 82.22 71.73 82.27 72.1 82.27C73.15 82.27 74 82.09 74.66 81.74C75.32 81.39 75.81 80.9 76.13 80.29C76.45 79.68 76.61 78.99 76.61 78.23C76.61 77.89 76.56 77.53 76.47 77.17C76.38 76.81 76.22 76.47 76.01 76.15C75.79 75.83 75.54 75.58 75.24 75.38C74.94 75.18 74.57 75.08 74.12 75.08C73.69 75.08 73.2 75.22 72.65 75.5C72.1 75.78 71.56 76.23 71.02 76.86C70.49 77.48 70.03 78.3 69.66 79.3C69.29 80.3 69.06 81.53 68.99 82.97L67.92 81.94C67.92 80.42 68.1 79.11 68.45 78C68.8 76.89 69.28 75.94 69.88 75.17C70.48 74.39 71.13 73.77 71.83 73.31C72.53 72.85 73.24 72.51 73.96 72.29C74.68 72.07 75.33 71.96 75.91 71.96C76.83 71.96 77.69 72.14 78.52 72.5C79.34 72.86 80.01 73.44 80.52 74.25C81.03 75.05 81.29 76.12 81.29 77.43C81.29 78.6 81.08 79.65 80.66 80.56C80.24 81.47 79.66 82.24 78.94 82.85C78.21 83.46 77.37 83.93 76.43 84.23C75.48 84.55 74.5 84.71 73.47 84.71Z" fill="#F59F00"/>
<path d="M88.46 84.65L83.89 84.38C84.11 82.94 84.28 81.57 84.38 80.27C84.48 78.98 84.53 77.7 84.52 76.45C84.51 75.19 84.43 73.9 84.28 72.56L87.92 71.83C88.13 73.04 88.28 74.17 88.38 75.23C88.48 76.29 88.55 77.31 88.59 78.31C88.63 79.3 88.63 80.32 88.6 81.36C88.59 82.4 88.54 83.5 88.46 84.65ZM88.46 84.65L87.65 80.58C87.71 79.03 87.97 77.63 88.43 76.39C88.9 75.15 89.51 74.14 90.28 73.34C91.05 72.55 91.91 72.03 92.87 71.81C93.83 71.58 94.86 71.72 95.94 72.23L95.24 76.73C94.01 76.15 92.98 75.89 92.17 75.96C91.36 76.02 90.71 76.4 90.22 77.1C89.73 77.8 89.36 78.78 89.09 80.04C88.82 81.31 88.61 82.85 88.46 84.65Z" fill="#F59F00"/>
<path d="M101.44 84.79C100.66 84.79 99.93 84.64 99.25 84.33C98.58 84.02 98.04 83.56 97.62 82.93C97.21 82.31 97 81.53 97 80.61C97 79.58 97.3 78.57 97.9 77.57C98.5 76.58 99.49 75.64 100.88 74.76C102.27 73.88 104.13 73.11 106.47 72.44L107.68 74.5C106.37 74.77 105.29 75.11 104.44 75.5C103.59 75.9 102.93 76.31 102.46 76.75C101.99 77.18 101.67 77.61 101.49 78.02C101.31 78.44 101.22 78.81 101.22 79.13C101.22 79.76 101.4 80.3 101.75 80.76C102.1 81.21 102.58 81.44 103.18 81.44C103.74 81.44 104.29 81.28 104.82 80.95C105.35 80.62 105.8 80.14 106.15 79.49C106.5 78.84 106.68 78.03 106.68 77.05L108.31 76.02C108.22 77.63 107.95 78.99 107.5 80.1C107.05 81.21 106.5 82.11 105.83 82.8C105.17 83.49 104.45 83.99 103.69 84.3C102.94 84.63 102.19 84.79 101.44 84.79ZM107.47 84.84C107.32 84.1 107.18 83.22 107.06 82.2C106.94 81.18 106.84 80.13 106.77 79.06C106.7 77.98 106.63 76.97 106.59 76.02C106.54 75.07 106.51 74.27 106.49 73.62C106.47 72.97 106.47 72.58 106.49 72.45L111.23 71.99C110.97 74.43 110.81 76.62 110.75 78.56C110.69 80.5 110.72 82.33 110.83 84.05L107.47 84.84Z" fill="#F59F00"/>
<path d="M119.01 84.65L114.44 84.38C114.66 82.94 114.83 81.57 114.93 80.27C115.03 78.98 115.08 77.7 115.07 76.45C115.06 75.19 114.98 73.9 114.83 72.56L118.47 71.83C118.68 73.04 118.83 74.17 118.93 75.23C119.03 76.29 119.1 77.31 119.14 78.31C119.18 79.3 119.18 80.32 119.15 81.36C119.14 82.4 119.09 83.5 119.01 84.65ZM119.01 84.65L118.2 80.58C118.26 79.03 118.52 77.63 118.98 76.39C119.45 75.15 120.06 74.14 120.83 73.34C121.6 72.55 122.46 72.03 123.42 71.81C124.38 71.58 125.41 71.72 126.49 72.23L125.79 76.73C124.56 76.15 123.53 75.89 122.72 75.96C121.91 76.02 121.26 76.4 120.77 77.1C120.28 77.8 119.91 78.78 119.64 80.04C119.37 81.31 119.16 82.85 119.01 84.65Z" fill="#F59F00"/>
<path d="M87.99 33.82H71.56C69.34 33.82 67.09 33.78 64.82 33.69C62.55 33.6 60.33 33.42 58.17 33.15C56.01 32.87 53.98 32.48 52.11 31.98C50.23 31.47 48.57 30.81 47.12 30C46.88 31.64 46.44 33.08 45.82 34.32C45.2 35.56 44.45 36.61 43.57 37.48C42.69 38.34 41.71 39.03 40.64 39.54C39.57 40.05 38.45 40.39 37.3 40.57C36.63 40.68 35.95 40.74 35.27 40.74C34.78 40.74 34.12 40.69 33.28 40.6C32.44 40.51 31.47 40.26 30.38 39.85C29.29 39.45 28.27 38.91 27.32 38.24C26.38 37.57 25.57 36.78 24.88 35.88C24.2 34.98 23.68 33.97 23.32 32.86C23.02 31.95 22.88 30.98 22.88 29.94C22.88 29.71 22.88 29.48 22.9 29.24C22.93 29.2 22.99 29.1 23.07 28.95C23.15 28.8 23.24 28.62 23.34 28.41C23.44 28.21 23.55 27.99 23.67 27.77C23.79 27.55 23.9 27.35 24 27.16C24.1 26.98 24.19 26.82 24.25 26.7C24.32 26.58 24.36 26.51 24.38 26.51C24.36 26.78 24.35 27.05 24.35 27.31C24.35 28.25 24.5 29.18 24.79 30.1C25.08 31.02 25.55 31.88 26.19 32.69C26.83 33.5 27.59 34.19 28.47 34.77C29.35 35.35 30.3 35.8 31.31 36.14C32.32 36.48 33.37 36.69 34.45 36.77C34.84 36.8 35.22 36.82 35.6 36.82C36.28 36.82 37.04 36.75 37.88 36.62C38.72 36.48 39.6 36.2 40.51 35.77C41.42 35.34 42.22 34.77 42.9 34.06C43.58 33.35 44.12 32.5 44.5 31.52C44.86 30.6 45.03 29.56 45.03 28.4V28.12C44.81 27.43 44.59 26.75 44.37 26.07C44.16 25.39 43.94 24.72 43.71 24.05C44.07 23.56 44.42 23.06 44.76 22.56C45.1 22.06 45.43 21.56 45.76 21.07C46.11 22.09 46.63 23 47.34 23.8C48.05 24.6 48.9 25.31 49.89 25.92C50.88 26.54 52 27.07 53.24 27.51C54.48 27.95 55.81 28.33 57.22 28.64C58.63 28.95 60.11 29.2 61.66 29.39C63.21 29.58 64.78 29.72 66.39 29.83C67.99 29.94 69.61 30.01 71.22 30.04C72.51 30.07 73.79 30.08 75.05 30.08H76L87.98 30.04V33.82H87.99Z" fill="#F59F00"/>
<path d="M101.6 23.49C102.41 23.93 103.12 24.38 103.71 24.82C104.3 25.27 104.8 25.71 105.22 26.14C105.5 26.44 105.72 26.68 105.87 26.88C106.02 27.08 106.14 27.26 106.24 27.44C106.34 27.62 106.42 27.81 106.5 28.01C106.58 28.21 106.69 28.46 106.83 28.76C107.27 29.61 107.74 30.03 108.24 30.03V33.76C108.24 33.79 108.21 33.8 108.15 33.8C107.95 33.8 107.72 33.78 107.49 33.74C107.25 33.7 107.01 33.62 106.78 33.5C106.55 33.38 106.32 33.22 106.11 33.01C105.9 32.8 105.71 32.54 105.54 32.21C105.07 32.63 104.52 32.93 103.89 33.13C103.46 33.27 103.04 33.33 102.62 33.33C102.42 33.33 102.11 33.3 101.69 33.24C101.27 33.18 100.79 32.95 100.24 32.53C99.69 32.12 99.26 31.51 98.96 30.71C98.77 30.86 98.49 31.05 98.13 31.26C97.77 31.48 97.34 31.7 96.83 31.94C96.32 32.18 95.74 32.41 95.08 32.65C94.42 32.88 93.7 33.09 92.91 33.26C92.12 33.43 91.27 33.57 90.37 33.66C89.71 33.73 89.02 33.76 88.29 33.76C88.03 33.76 87.76 33.76 87.48 33.75C87.48 33.69 87.48 33.56 87.48 33.35C87.48 33.14 87.48 32.9 87.47 32.62C87.46 32.34 87.46 32.05 87.46 31.75C87.46 31.44 87.46 31.16 87.47 30.91C87.48 30.66 87.48 30.44 87.49 30.27C87.5 30.1 87.51 30.02 87.53 30.02H87.79C89.17 30.02 90.4 29.96 91.48 29.83C92.55 29.7 93.49 29.52 94.29 29.29C95.09 29.06 95.75 28.8 96.28 28.5C96.8 28.2 97.23 27.89 97.56 27.58C97.89 27.27 98.13 26.95 98.29 26.63C98.45 26.32 98.57 26.03 98.66 25.76L101.6 23.49Z" fill="#F59F00"/>
<path d="M140.34 28.42C140.01 29.06 139.69 29.69 139.38 30.31C139.06 30.93 138.74 31.55 138.42 32.17C137.32 32.2 136.13 32.26 134.84 32.32C133.55 32.38 132.21 32.46 130.81 32.55C129.41 32.64 127.98 32.72 126.52 32.82C125.06 32.91 123.61 33.01 122.17 33.11C120.73 33.21 119.32 33.3 117.93 33.38C116.54 33.47 115.23 33.54 114 33.62C112.76 33.69 111.62 33.75 110.56 33.8C109.51 33.85 108.59 33.87 107.8 33.88V30.09H107.85C108.31 30.1 108.79 30.1 109.29 30.1C109.96 30.1 110.81 30.09 111.85 30.07C112.88 30.05 114.13 30 115.6 29.94C117.07 29.87 118.58 29.79 120.15 29.69C121.72 29.59 123.28 29.49 124.84 29.38C126.4 29.27 127.93 29.17 129.44 29.05C130.95 28.94 132.37 28.84 133.72 28.75C135.06 28.66 136.3 28.59 137.44 28.53C138.55 28.48 139.52 28.44 140.34 28.42Z" fill="#F59F00"/>
<path d="M132.81 85.02L127.88 73.07C127.98 72.92 128.53 72.13 129.66 71.66C129.71 71.64 129.76 71.62 129.82 71.6C130.85 71.22 131.68 71.36 131.91 71.41L136.84 83.36C136.35 83.43 135.61 83.59 134.75 83.94C133.86 84.3 133.21 84.73 132.81 85.02Z" fill="#F59F00"/>
<path d="M131.887 82.7781L135.918 81.1156L135.243 79.4795L131.212 81.1419L131.887 82.7781Z" fill="#FCFDFE"/>
<path d="M145.12 70.41C144.95 77.28 143.67 87.13 137.93 96.59C118.47 128.73 58.65 138.44 26.67 111.94C7.79 96.29 1.52 70.44 1.25 65.79C0.890005 59.55 0.880005 49.72 0.880005 49.72C0.930005 49.34 0.970005 48.98 1.03 48.63C1.2 48.44 1.48001 48.1 1.85001 47.62C2.29001 47.04 2.79001 46.37 3.35001 45.61C3.90001 44.85 4.49 44.05 5.13 43.22C5.76 42.4 6.36 41.64 6.91 40.95C7.46 40.26 7.92001 39.69 8.27001 39.23C8.42001 39.05 8.53 38.9 8.65 38.79C8.68 38.79 8.7 38.8 8.73 38.8C8.58 39.15 8.41 39.55 8.24 39.98C8.24 39.98 7.41 41.98 6.83 44.11C6.49 45.35 2.22001 83.29 30.86 106.37C60.22 130.03 97.72 116.77 104.4 114.2C111.41 111.51 125.09 106.25 133.67 92.13C138.23 84.62 139.72 77.27 140.27 72.51C141.87 71.81 143.5 71.11 145.12 70.41Z" fill="#F59F00"/>
<path d="M33.18 83.89C33.31 81.65 33.43 79.34 33.51 76.96C33.59 74.57 33.64 72.14 33.66 69.67C33.68 67.2 33.63 64.68 33.53 62.13C33.43 59.57 33.27 57.02 33.05 54.46C32.83 51.9 32.53 49.35 32.16 46.81L37.75 46.35C38.02 49.94 38.2 53.29 38.28 56.41C38.36 59.53 38.39 62.52 38.36 65.4C38.33 68.28 38.25 71.17 38.13 74.06C38.01 76.96 37.88 80.01 37.75 83.23L33.18 83.89ZM54.31 83.89C53.16 83.96 51.96 84.05 50.7 84.17C49.45 84.29 48.15 84.39 46.81 84.47C45.47 84.55 44.07 84.61 42.62 84.62C41.16 84.64 39.65 84.59 38.07 84.49C36.49 84.39 34.86 84.19 33.17 83.88L35.4 81.14C37.91 81.65 40.69 81.72 43.76 81.37C46.82 81.01 50.17 80.36 53.79 79.41L54.31 83.89Z" fill="#F59F00"/>
</svg>
